<?xml version="1.0" encoding="UTF-8"?>
<svg xmlns="http://www.w3.org/2000/svg" xmlns:xlink="http://www.w3.org/1999/xlink" width="1175" height="300" viewBox="83 139 235 60">
<defs>
<g>
<g id="glyph-0-0">
<path d="M 21.265625 -21.796875 L 13.609375 -21.796875 L 13.609375 0 L 8.1875 0 L 8.1875 -21.796875 L 0.546875 -21.796875 L 0.546875 -26.15625 L 21.265625 -26.15625 Z M 21.265625 -21.796875 "/>
</g>
<g id="glyph-1-0">
<path d="M 13.09375 6.765625 C 11.707031 6.765625 10.46875 6.941406 9.375 7.296875 C 8.289062 7.660156 7.367188 8.179688 6.609375 8.859375 C 5.859375 9.535156 5.28125 10.359375 4.875 11.328125 C 4.46875 12.304688 4.265625 13.410156 4.265625 14.640625 C 4.265625 15.867188 4.46875 16.96875 4.875 17.9375 C 5.28125 18.90625 5.859375 19.726562 6.609375 20.40625 C 7.367188 21.082031 8.289062 21.597656 9.375 21.953125 C 10.46875 22.316406 11.707031 22.5 13.09375 22.5 C 14.457031 22.5 15.679688 22.316406 16.765625 21.953125 C 17.859375 21.597656 18.785156 21.082031 19.546875 20.40625 C 20.316406 19.726562 20.898438 18.90625 21.296875 17.9375 C 21.703125 16.96875 21.90625 15.867188 21.90625 14.640625 C 21.90625 13.410156 21.703125 12.304688 21.296875 11.328125 C 20.898438 10.359375 20.316406 9.535156 19.546875 8.859375 C 18.785156 8.179688 17.859375 7.660156 16.765625 7.296875 C 15.679688 6.941406 14.457031 6.765625 13.09375 6.765625 Z M -5.015625 29.4375 L -5.015625 24.984375 C -5.015625 24.335938 -4.929688 23.757812 -4.765625 23.25 C -4.597656 22.738281 -4.285156 22.269531 -3.828125 21.84375 L 0.125 18.28125 C -0.144531 17.113281 -0.28125 15.898438 -0.28125 14.640625 C -0.28125 12.628906 0.0546875 10.800781 0.734375 9.15625 C 1.410156 7.507812 2.34375 6.097656 3.53125 4.921875 C 4.71875 3.742188 6.128906 2.832031 7.765625 2.1875 C 9.398438 1.539062 11.175781 1.21875 13.09375 1.21875 C 15 1.21875 16.765625 1.539062 18.390625 2.1875 C 20.023438 2.832031 21.4375 3.742188 22.625 4.921875 C 23.820312 6.097656 24.757812 7.507812 25.4375 9.15625 C 26.113281 10.800781 26.453125 12.628906 26.453125 14.640625 C 26.453125 16.648438 26.113281 18.476562 25.4375 20.125 C 24.757812 21.769531 23.820312 23.175781 22.625 24.34375 C 21.425781 25.519531 20.007812 26.425781 18.375 27.0625 C 16.75 27.707031 14.988281 28.03125 13.09375 28.03125 C 11.9375 28.03125 10.832031 27.910156 9.78125 27.671875 C 8.726562 27.441406 7.742188 27.101562 6.828125 26.65625 C 5.910156 26.21875 5.054688 25.671875 4.265625 25.015625 C 3.484375 24.367188 2.800781 23.640625 2.21875 22.828125 Z M -5.015625 29.4375 "/>
</g>
<g id="glyph-2-0">
<path d="M -13.09375 -6.765625 C -11.707031 -6.765625 -10.46875 -6.941406 -9.375 -7.296875 C -8.289062 -7.660156 -7.367188 -8.179688 -6.609375 -8.859375 C -5.859375 -9.535156 -5.28125 -10.359375 -4.875 -11.328125 C -4.46875 -12.304688 -4.265625 -13.410156 -4.265625 -14.640625 C -4.265625 -15.867188 -4.46875 -16.96875 -4.875 -17.9375 C -5.28125 -18.90625 -5.859375 -19.726562 -6.609375 -20.40625 C -7.367188 -21.082031 -8.289062 -21.597656 -9.375 -21.953125 C -10.46875 -22.316406 -11.707031 -22.5 -13.09375 -22.5 C -14.457031 -22.5 -15.679688 -22.316406 -16.765625 -21.953125 C -17.859375 -21.597656 -18.785156 -21.082031 -19.546875 -20.40625 C -20.316406 -19.726562 -20.898438 -18.90625 -21.296875 -17.9375 C -21.703125 -16.96875 -21.90625 -15.867188 -21.90625 -14.640625 C -21.90625 -13.410156 -21.703125 -12.304688 -21.296875 -11.328125 C -20.898438 -10.359375 -20.316406 -9.535156 -19.546875 -8.859375 C -18.785156 -8.179688 -17.859375 -7.660156 -16.765625 -7.296875 C -15.679688 -6.941406 -14.457031 -6.765625 -13.09375 -6.765625 Z M 5.015625 -29.4375 L 5.015625 -24.984375 C 5.015625 -24.335938 4.929688 -23.757812 4.765625 -23.25 C 4.597656 -22.738281 4.285156 -22.269531 3.828125 -21.84375 L -0.125 -18.28125 C 0.144531 -17.113281 0.28125 -15.898438 0.28125 -14.640625 C 0.28125 -12.628906 -0.0546875 -10.800781 -0.734375 -9.15625 C -1.410156 -7.507812 -2.34375 -6.097656 -3.53125 -4.921875 C -4.71875 -3.742188 -6.128906 -2.832031 -7.765625 -2.1875 C -9.398438 -1.539062 -11.175781 -1.21875 -13.09375 -1.21875 C -15 -1.21875 -16.765625 -1.539062 -18.390625 -2.1875 C -20.023438 -2.832031 -21.4375 -3.742188 -22.625 -4.921875 C -23.820312 -6.097656 -24.757812 -7.507812 -25.4375 -9.15625 C -26.113281 -10.800781 -26.453125 -12.628906 -26.453125 -14.640625 C -26.453125 -16.648438 -26.113281 -18.476562 -25.4375 -20.125 C -24.757812 -21.769531 -23.820312 -23.175781 -22.625 -24.34375 C -21.425781 -25.519531 -20.007812 -26.425781 -18.375 -27.0625 C -16.75 -27.707031 -14.988281 -28.03125 -13.09375 -28.03125 C -11.9375 -28.03125 -10.832031 -27.910156 -9.78125 -27.671875 C -8.726562 -27.441406 -7.742188 -27.101562 -6.828125 -26.65625 C -5.910156 -26.21875 -5.054688 -25.671875 -4.265625 -25.015625 C -3.484375 -24.367188 -2.800781 -23.640625 -2.21875 -22.828125 Z M 5.015625 -29.4375 "/>
</g>
<g id="glyph-3-0">
<path d="M -21.265625 21.796875 L -13.609375 21.796875 L -13.609375 0 L -8.1875 0 L -8.1875 21.796875 L -0.546875 21.796875 L -0.546875 26.15625 L -21.265625 26.15625 Z M -21.265625 21.796875 "/>
</g>
<g id="glyph-4-0">
<path d="M 5.25 -6.328125 L 5.25 0 L 1.703125 0 L 1.703125 -16.671875 L 9.84375 -16.671875 C 12.175781 -16.671875 13.800781 -16.375 14.71875 -15.78125 C 15.351562 -15.375 15.84375 -14.84375 16.1875 -14.1875 C 16.53125 -13.53125 16.703125 -12.8125 16.703125 -12.03125 C 16.703125 -10.445312 16.300781 -9.21875 15.5 -8.34375 C 15 -7.832031 14.34375 -7.441406 13.53125 -7.171875 C 14.175781 -6.941406 14.664062 -6.695312 15 -6.4375 C 15.332031 -6.175781 15.632812 -5.796875 15.90625 -5.296875 C 16.101562 -4.898438 16.242188 -4.515625 16.328125 -4.140625 C 16.421875 -3.773438 16.492188 -3.238281 16.546875 -2.53125 C 16.648438 -1.320312 16.785156 -0.476562 16.953125 0 L 12.96875 0 C 12.851562 -0.382812 12.726562 -1.175781 12.59375 -2.375 C 12.507812 -3.34375 12.335938 -4.082031 12.078125 -4.59375 C 11.828125 -5.113281 11.441406 -5.523438 10.921875 -5.828125 C 10.273438 -6.171875 9.332031 -6.335938 8.09375 -6.328125 Z M 5.25 -9.296875 L 10.21875 -9.296875 C 11.050781 -9.296875 11.644531 -9.421875 12 -9.671875 C 12.53125 -10.035156 12.796875 -10.675781 12.796875 -11.59375 C 12.796875 -12.613281 12.394531 -13.265625 11.59375 -13.546875 C 11.3125 -13.648438 10.851562 -13.703125 10.21875 -13.703125 L 5.25 -13.703125 Z M 5.25 -9.296875 "/>
</g>
<g id="glyph-4-1">
<path d="M 14.203125 -16.671875 L 14.203125 -13.703125 L 9.578125 -13.703125 C 8.378906 -13.703125 7.503906 -13.617188 6.953125 -13.453125 C 6.398438 -13.285156 5.941406 -12.957031 5.578125 -12.46875 C 5.328125 -12.132812 5.15625 -11.800781 5.0625 -11.46875 C 4.96875 -11.132812 4.890625 -10.570312 4.828125 -9.78125 L 14.203125 -9.78125 L 14.203125 -6.796875 L 4.828125 -6.796875 C 4.960938 -5.367188 5.382812 -4.375 6.09375 -3.8125 C 6.8125 -3.25 8.03125 -2.96875 9.75 -2.96875 L 14.203125 -2.96875 L 14.203125 0 L 9.578125 0 C 8.328125 0 7.226562 -0.0703125 6.28125 -0.21875 C 4.78125 -0.46875 3.585938 -1.128906 2.703125 -2.203125 C 1.429688 -3.734375 0.796875 -5.804688 0.796875 -8.421875 C 0.796875 -11.328125 1.6875 -13.585938 3.46875 -15.203125 C 4.09375 -15.753906 4.75 -16.132812 5.4375 -16.34375 C 6.125 -16.5625 7.050781 -16.671875 8.21875 -16.671875 Z M 14.203125 -16.671875 "/>
</g>
<g id="glyph-4-2">
<path d="M 1.625 0 L 1.625 -2.96875 L 9.25 -2.96875 C 10.46875 -2.96875 11.273438 -3.085938 11.671875 -3.328125 C 12.253906 -3.671875 12.546875 -4.195312 12.546875 -4.90625 C 12.546875 -5.71875 12.207031 -6.304688 11.53125 -6.671875 C 11.144531 -6.890625 10.523438 -7 9.671875 -7 L 6.578125 -7 C 4.691406 -7 3.332031 -7.34375 2.5 -8.03125 C 1.976562 -8.457031 1.570312 -8.992188 1.28125 -9.640625 C 0.988281 -10.296875 0.84375 -11 0.84375 -11.75 C 0.84375 -12.914062 1.1875 -13.984375 1.875 -14.953125 C 2.539062 -15.878906 3.609375 -16.425781 5.078125 -16.59375 C 5.578125 -16.644531 6.316406 -16.671875 7.296875 -16.671875 L 15.578125 -16.671875 L 15.578125 -13.703125 L 8.09375 -13.703125 C 6.976562 -13.679688 6.238281 -13.628906 5.875 -13.546875 C 5.125 -13.367188 4.75 -12.800781 4.75 -11.84375 C 4.75 -11.050781 5.066406 -10.519531 5.703125 -10.25 C 6.117188 -10.050781 6.816406 -9.953125 7.796875 -9.953125 L 10.46875 -9.953125 C 11.84375 -9.953125 12.863281 -9.832031 13.53125 -9.59375 C 14.707031 -9.195312 15.519531 -8.5 15.96875 -7.5 C 16.320312 -6.695312 16.5 -5.835938 16.5 -4.921875 C 16.5 -3.910156 16.265625 -3.003906 15.796875 -2.203125 C 15.148438 -1.066406 14.175781 -0.382812 12.875 -0.15625 C 12.238281 -0.0507812 11.28125 0 10 0 Z M 1.625 0 "/>
</g>
<g id="glyph-4-3">
<path d="M 9.03125 -16.78125 C 10.695312 -16.78125 12.160156 -16.492188 13.421875 -15.921875 C 14.910156 -15.242188 15.953125 -14.101562 16.546875 -12.5 C 17.015625 -11.25 17.25 -9.78125 17.25 -8.09375 C 17.25 -6.394531 16.96875 -4.921875 16.40625 -3.671875 C 15.6875 -2.191406 14.582031 -1.148438 13.09375 -0.546875 C 12 -0.117188 10.734375 0.09375 9.296875 0.09375 C 7.410156 0.09375 5.78125 -0.253906 4.40625 -0.953125 C 3.238281 -1.535156 2.34375 -2.453125 1.71875 -3.703125 C 1.101562 -4.953125 0.796875 -6.46875 0.796875 -8.25 C 0.796875 -11.4375 1.585938 -13.703125 3.171875 -15.046875 C 4.503906 -16.179688 6.457031 -16.757812 9.03125 -16.78125 Z M 9.046875 -13.96875 C 7.410156 -13.96875 6.242188 -13.4375 5.546875 -12.375 C 4.984375 -11.539062 4.703125 -10.195312 4.703125 -8.34375 C 4.703125 -6.394531 5.050781 -4.960938 5.75 -4.046875 C 6.445312 -3.148438 7.554688 -2.703125 9.078125 -2.703125 C 10.546875 -2.703125 11.625 -3.160156 12.3125 -4.078125 C 13 -4.992188 13.34375 -6.410156 13.34375 -8.328125 C 13.34375 -10.078125 13.0625 -11.410156 12.5 -12.328125 C 11.851562 -13.410156 10.703125 -13.957031 9.046875 -13.96875 Z M 9.046875 -13.96875 "/>
</g>
<g id="glyph-4-4">
<path d="M 5.03125 -16.671875 L 5.03125 -6.671875 C 5.03125 -5.867188 5.09375 -5.25 5.21875 -4.8125 C 5.351562 -4.375 5.582031 -3.992188 5.90625 -3.671875 C 6.601562 -2.992188 7.578125 -2.65625 8.828125 -2.65625 C 9.628906 -2.65625 10.320312 -2.789062 10.90625 -3.0625 C 11.5 -3.332031 11.914062 -3.703125 12.15625 -4.171875 C 12.382812 -4.640625 12.5 -5.472656 12.5 -6.671875 L 12.5 -16.671875 L 16.046875 -16.671875 L 16.046875 -6.84375 C 16.046875 -5.550781 15.90625 -4.484375 15.625 -3.640625 C 15.351562 -2.796875 14.9375 -2.113281 14.375 -1.59375 C 13.0625 -0.445312 11.195312 0.125 8.78125 0.125 C 6.195312 0.125 4.3125 -0.441406 3.125 -1.578125 C 2.507812 -2.160156 2.082031 -2.8125 1.84375 -3.53125 C 1.613281 -4.257812 1.5 -5.28125 1.5 -6.59375 L 1.5 -16.671875 Z M 5.03125 -16.671875 "/>
</g>
<g id="glyph-4-5">
<path d="M 14.375 -2.96875 L 14.375 0 L 8.546875 0 C 7.453125 0 6.613281 -0.0546875 6.03125 -0.171875 C 3.976562 -0.578125 2.519531 -1.71875 1.65625 -3.59375 C 1.082031 -4.863281 0.796875 -6.429688 0.796875 -8.296875 C 0.796875 -10.535156 1.226562 -12.351562 2.09375 -13.75 C 2.726562 -14.769531 3.570312 -15.507812 4.625 -15.96875 C 5.6875 -16.4375 7.050781 -16.671875 8.71875 -16.671875 L 14.375 -16.671875 L 14.375 -13.703125 L 9.125 -13.703125 C 7.539062 -13.703125 6.382812 -13.273438 5.65625 -12.421875 C 5.03125 -11.722656 4.71875 -10.457031 4.71875 -8.625 C 4.71875 -6.15625 5.195312 -4.539062 6.15625 -3.78125 C 6.820312 -3.238281 7.863281 -2.96875 9.28125 -2.96875 Z M 14.375 -2.96875 "/>
</g>
<g id="glyph-5-0">
<path d="M 7.789062 1.386719 C 8.453125 0.644531 8.910156 -0.570312 9.117188 -1.613281 L 7.882812 -1.824219 C 7.675781 -0.875 7.199219 0.191406 6.628906 0.796875 Z M 9.667969 -1.3125 C 9.839844 -0.53125 9.972656 0.476562 9.992188 1.140625 L 11.132812 0.929688 C 11.074219 0.285156 10.921875 -0.703125 10.734375 -1.480469 Z M 11.492188 -1.425781 C 11.757812 -0.742188 12.082031 0.152344 12.195312 0.722656 L 13.203125 0.378906 C 13.070312 -0.152344 12.726562 -1.027344 12.445312 -1.671875 Z M 11.96875 -6.726562 L 9.898438 -6.726562 L 9.898438 -7.503906 L 11.96875 -7.503906 Z M 11.96875 -4.976562 L 9.898438 -4.976562 L 9.898438 -5.8125 L 11.96875 -5.8125 Z M 11.96875 -3.210938 L 9.898438 -3.210938 L 9.898438 -4.066406 L 11.96875 -4.066406 Z M 13.847656 -9.6875 C 14.058594 -9.328125 14.304688 -8.949219 14.589844 -8.605469 L 10.070312 -8.605469 C 10.355469 -8.949219 10.582031 -9.308594 10.828125 -9.6875 Z M 3.152344 -6.441406 C 3.191406 -7.160156 3.191406 -7.847656 3.191406 -8.472656 L 3.191406 -9.289062 L 4.9375 -9.289062 L 4.9375 -6.441406 Z M 4.9375 -13.640625 L 4.9375 -10.90625 L 3.191406 -10.90625 L 3.191406 -13.640625 Z M 15.597656 -7.503906 C 16.128906 -7.027344 16.699219 -6.628906 17.324219 -6.34375 C 17.574219 -6.742188 18.027344 -7.296875 18.390625 -7.597656 C 17.269531 -8.015625 16.261719 -8.796875 15.539062 -9.6875 L 18.046875 -9.6875 L 18.046875 -11.019531 L 11.53125 -11.019531 C 11.703125 -11.398438 11.855469 -11.757812 12.007812 -12.160156 L 17.535156 -12.160156 L 17.535156 -13.449219 L 15.617188 -13.449219 C 15.957031 -13.980469 16.320312 -14.722656 16.71875 -15.425781 L 15.066406 -15.84375 C 14.855469 -15.21875 14.457031 -14.304688 14.171875 -13.714844 L 15.027344 -13.449219 L 12.425781 -13.449219 C 12.613281 -14.171875 12.785156 -14.949219 12.9375 -15.785156 L 11.398438 -15.9375 C 11.265625 -15.046875 11.074219 -14.230469 10.828125 -13.449219 L 8.777344 -13.449219 L 9.839844 -13.8125 C 9.707031 -14.363281 9.367188 -15.160156 8.96875 -15.785156 L 7.65625 -15.367188 C 7.996094 -14.800781 8.300781 -14 8.433594 -13.449219 L 7.277344 -13.449219 L 7.277344 -12.160156 L 10.390625 -12.160156 C 10.21875 -11.757812 10.050781 -11.378906 9.839844 -11.019531 L 6.78125 -11.019531 L 6.78125 -9.6875 L 8.96875 -9.6875 C 8.28125 -8.816406 7.429688 -8.074219 6.402344 -7.484375 L 6.402344 -15.253906 L 1.765625 -15.253906 L 1.765625 -8.472656 C 1.765625 -5.71875 1.710938 -1.898438 0.722656 0.761719 C 1.101562 0.894531 1.730469 1.234375 2.015625 1.460938 C 2.660156 -0.285156 2.945312 -2.601562 3.097656 -4.804688 L 4.9375 -4.804688 L 4.9375 -0.417969 C 4.9375 -0.171875 4.863281 -0.113281 4.636719 -0.09375 C 4.464844 -0.09375 3.835938 -0.0742188 3.171875 -0.113281 C 3.363281 0.285156 3.550781 0.988281 3.609375 1.386719 C 4.65625 1.386719 5.339844 1.347656 5.8125 1.0625 C 6.25 0.816406 6.402344 0.359375 6.402344 -0.398438 L 6.402344 -7.160156 C 6.707031 -6.839844 7.066406 -6.363281 7.21875 -6.097656 C 7.636719 -6.34375 8.015625 -6.628906 8.378906 -6.894531 L 8.378906 -2.109375 L 16.054688 -2.109375 C 15.917969 -0.664062 15.769531 -0.0585938 15.597656 0.152344 C 15.484375 0.285156 15.351562 0.304688 15.121094 0.304688 C 14.914062 0.304688 14.4375 0.304688 13.867188 0.226562 C 14.039062 0.570312 14.171875 1.082031 14.210938 1.445312 C 14.855469 1.480469 15.539062 1.480469 15.863281 1.445312 C 16.28125 1.425781 16.585938 1.292969 16.851562 1.007812 C 17.230469 0.625 17.421875 -0.359375 17.589844 -2.660156 C 17.628906 -2.832031 17.648438 -3.210938 17.648438 -3.210938 L 13.355469 -3.210938 L 13.355469 -4.066406 L 16.1875 -4.066406 L 16.1875 -4.976562 L 13.355469 -4.976562 L 13.355469 -5.8125 L 16.167969 -5.8125 L 16.167969 -6.726562 L 13.355469 -6.726562 L 13.355469 -7.503906 Z M 15.121094 -0.550781 C 14.914062 -0.929688 14.496094 -1.558594 14.078125 -2.015625 L 13.261719 -1.613281 C 13.640625 -1.140625 14.039062 -0.492188 14.230469 -0.0742188 Z M 15.121094 -0.550781 "/>
</g>
<g id="glyph-5-1">
<path d="M 1.746094 0.359375 C 2.070312 -0.761719 2.316406 -2.621094 2.46875 -3.894531 L 1.480469 -4.21875 C 1.367188 -2.964844 1.042969 -1.140625 0.703125 -0.0390625 Z M 2.8125 -3.914062 C 3 -2.792969 3.078125 -1.386719 3.039062 -0.4375 L 3.894531 -0.550781 C 3.933594 -1.480469 3.835938 -2.886719 3.648438 -4.007812 Z M 3.039062 -8.035156 L 4.617188 -8.035156 L 4.617188 -6.535156 L 3.039062 -6.535156 Z M 4.617188 -13.773438 L 4.617188 -12.308594 L 3.039062 -12.308594 L 3.039062 -13.773438 Z M 4.617188 -9.421875 L 3.039062 -9.421875 L 3.039062 -10.921875 L 4.617188 -10.921875 Z M 6.003906 -6.535156 L 6.003906 -8.035156 L 7.882812 -8.035156 L 7.882812 -9.421875 L 6.003906 -9.421875 L 6.003906 -10.921875 L 7.882812 -10.921875 L 7.882812 -12.308594 L 6.003906 -12.308594 L 6.003906 -13.773438 L 8.265625 -13.773438 L 8.265625 -15.179688 L 1.632812 -15.179688 L 1.632812 -5.128906 L 7.011719 -5.128906 C 6.953125 -4.179688 6.914062 -3.402344 6.859375 -2.734375 C 6.648438 -3.34375 6.363281 -4.046875 6.058594 -4.617188 L 5.320312 -4.351562 C 5.699219 -3.570312 6.097656 -2.546875 6.230469 -1.878906 L 6.800781 -2.089844 C 6.667969 -0.910156 6.515625 -0.359375 6.363281 -0.152344 C 6.230469 0.0390625 6.078125 0.0742188 5.832031 0.0742188 C 5.585938 0.0742188 5.015625 0.0742188 4.40625 0 C 4.617188 0.378906 4.769531 0.988281 4.804688 1.40625 C 5.472656 1.445312 6.117188 1.445312 6.496094 1.386719 C 6.992188 1.347656 7.296875 1.195312 7.597656 0.816406 C 8.074219 0.246094 8.265625 -1.425781 8.492188 -5.890625 C 8.511719 -6.097656 8.53125 -6.535156 8.53125 -6.535156 Z M 5.566406 -1.195312 C 5.492188 -1.996094 5.222656 -3.25 4.902344 -4.21875 L 4.101562 -4.066406 C 4.40625 -3.097656 4.671875 -1.824219 4.730469 -1.007812 Z M 11.039062 -2.699219 C 10.503906 -1.480469 9.519531 -0.285156 8.453125 0.511719 C 8.851562 0.761719 9.519531 1.273438 9.839844 1.578125 C 10.90625 0.664062 12.042969 -0.777344 12.691406 -2.242188 Z M 14.324219 -2.089844 C 15.234375 -0.96875 16.300781 0.53125 16.738281 1.480469 L 18.238281 0.683594 C 17.742188 -0.265625 16.640625 -1.730469 15.710938 -2.773438 Z M 11.929688 -6.097656 L 15.101562 -6.097656 L 15.101562 -4.597656 L 11.929688 -4.597656 Z M 15.101562 -11.816406 L 15.101562 -10.355469 L 11.929688 -10.355469 L 11.929688 -11.816406 Z M 11.929688 -8.96875 L 15.101562 -8.96875 L 15.101562 -7.484375 L 11.929688 -7.484375 Z M 16.71875 -4.597656 L 16.71875 -11.816406 L 18.105469 -11.816406 L 18.105469 -13.296875 L 16.71875 -13.296875 L 16.71875 -15.882812 L 15.101562 -15.882812 L 15.101562 -13.296875 L 11.929688 -13.296875 L 11.929688 -15.882812 L 10.335938 -15.882812 L 10.335938 -13.296875 L 8.929688 -13.296875 L 8.929688 -11.816406 L 10.335938 -11.816406 L 10.335938 -4.597656 L 8.851562 -4.597656 L 8.851562 -3.078125 L 18.3125 -3.078125 L 18.3125 -4.597656 Z M 16.71875 -4.597656 "/>
</g>
<g id="glyph-6-0">
<path d="M 15.464844 -13.316406 C 15.179688 -12.84375 14.816406 -12.367188 14.496094 -12.042969 L 15.902344 -11.589844 C 16.546875 -12.253906 17.230469 -13.355469 17.742188 -14.34375 L 16.566406 -14.667969 L 16.300781 -14.609375 L 10.203125 -14.609375 C 10.429688 -14.96875 10.621094 -15.3125 10.789062 -15.691406 L 9.195312 -15.9375 C 8.71875 -14.835938 7.789062 -13.546875 6.402344 -12.59375 C 6.800781 -12.425781 7.390625 -12.0625 7.714844 -11.742188 C 8.339844 -12.214844 8.871094 -12.765625 9.328125 -13.316406 Z M 6.515625 -14.152344 C 5.605469 -14.628906 3.855469 -15.234375 2.566406 -15.578125 L 1.785156 -14.363281 C 3.097656 -13.964844 4.84375 -13.277344 5.738281 -12.824219 Z M 6.210938 -12.214844 C 4.253906 -11.664062 2.242188 -11.074219 0.894531 -10.734375 L 1.578125 -9.214844 C 2.984375 -9.652344 4.75 -10.257812 6.441406 -10.828125 Z M 5.148438 -3.800781 L 14.058594 -3.800781 L 14.058594 -2.699219 L 5.148438 -2.699219 Z M 5.148438 -5.945312 L 14.058594 -5.945312 L 14.058594 -4.882812 L 5.148438 -4.882812 Z M 5.148438 -8.09375 L 14.058594 -8.09375 L 14.058594 -7.011719 L 5.148438 -7.011719 Z M 7.65625 -9.214844 C 9.402344 -9.632812 10.90625 -10.390625 11.875 -11.4375 C 12.878906 -10.46875 14.25 -9.6875 15.75 -9.214844 Z M 15.824219 -1.578125 L 15.824219 -9.195312 C 16.128906 -9.101562 16.414062 -9.023438 16.71875 -8.949219 C 16.945312 -9.347656 17.382812 -9.917969 17.707031 -10.238281 C 15.636719 -10.542969 13.695312 -11.359375 12.632812 -12.445312 C 12.726562 -12.632812 12.824219 -12.824219 12.898438 -13.011719 L 11.304688 -13.277344 C 10.773438 -11.722656 8.816406 -10.734375 6.476562 -10.335938 C 6.726562 -10.050781 7.046875 -9.554688 7.21875 -9.214844 L 3.4375 -9.214844 L 3.4375 -1.578125 L 6.496094 -1.578125 C 5.1875 -0.835938 2.964844 -0.191406 1.027344 0.191406 C 1.40625 0.511719 2.03125 1.160156 2.335938 1.519531 C 4.238281 0.988281 6.609375 0.0742188 8.167969 -0.855469 L 6.574219 -1.578125 L 12.273438 -1.578125 L 11.152344 -0.683594 C 13.109375 -0.0195312 15.101562 0.835938 16.261719 1.460938 L 17.859375 0.492188 C 16.566406 -0.132812 14.457031 -0.929688 12.519531 -1.578125 Z M 15.824219 -1.578125 "/>
</g>
<g id="glyph-7-0">
<path d="M 5.832031 -13.832031 C 5.089844 -14.363281 3.648438 -15.199219 2.679688 -15.75 L 1.632812 -14.515625 C 2.640625 -13.867188 4.046875 -12.976562 4.75 -12.425781 Z M 4.921875 -8.871094 C 4.160156 -9.382812 2.734375 -10.183594 1.746094 -10.714844 L 0.722656 -9.441406 C 1.746094 -8.851562 3.152344 -7.980469 3.855469 -7.445312 Z M 3.835938 -5.792969 C 3 -3.628906 1.863281 -1.195312 1.0625 0.285156 L 2.660156 1.234375 C 3.535156 -0.550781 4.503906 -2.832031 5.242188 -4.804688 Z M 8.113281 -13.394531 L 18.007812 -13.394531 L 18.007812 -14.988281 L 6.382812 -14.988281 L 6.382812 -9.800781 C 6.382812 -6.726562 6.191406 -2.449219 4.066406 0.511719 C 4.484375 0.703125 5.242188 1.160156 5.546875 1.445312 C 7.769531 -1.691406 8.113281 -6.496094 8.113281 -9.800781 Z M 9.535156 -3.894531 C 9.042969 -2.679688 8.226562 -1.347656 7.410156 -0.457031 C 7.808594 -0.246094 8.492188 0.171875 8.816406 0.398438 C 9.59375 -0.550781 10.503906 -2.089844 11.113281 -3.457031 Z M 10.601562 -7.523438 L 15.730469 -7.523438 L 15.730469 -6.136719 L 10.601562 -6.136719 Z M 10.601562 -10.144531 L 15.730469 -10.144531 L 15.730469 -8.777344 L 10.601562 -8.777344 Z M 17.382812 -4.824219 L 17.382812 -11.472656 L 13.488281 -11.472656 C 13.714844 -11.929688 13.980469 -12.40625 14.230469 -12.917969 L 12.253906 -13.277344 C 12.140625 -12.765625 11.929688 -12.0625 11.742188 -11.472656 L 9.023438 -11.472656 L 9.023438 -4.824219 L 12.234375 -4.824219 L 12.234375 -0.304688 C 12.234375 -0.09375 12.160156 -0.0195312 11.929688 -0.0195312 C 11.703125 -0.0195312 10.921875 0 10.125 -0.0390625 C 10.296875 0.398438 10.523438 1.042969 10.582031 1.480469 C 11.816406 1.5 12.652344 1.480469 13.203125 1.214844 C 13.773438 0.988281 13.90625 0.550781 13.90625 -0.246094 L 13.90625 -4.824219 Z M 14.855469 -3.496094 C 15.539062 -2.296875 16.375 -0.703125 16.773438 0.246094 L 18.390625 -0.457031 C 17.972656 -1.386719 17.078125 -2.925781 16.375 -4.066406 Z M 14.855469 -3.496094 "/>
</g>
</g>
</defs>
<rect x="-37.5" y="-37.499999" width="450" height="449.999989" fill="rgb(100%, 100%, 100%)" fill-opacity="1"/>
<rect x="-37.5" y="-37.499999" width="450" height="449.999989" fill="rgb(100%, 100%, 100%)" fill-opacity="1"/>
<rect x="-37.5" y="-37.499999" width="450" height="449.999989" fill="rgb(100%, 100%, 100%)" fill-opacity="1"/>
<g fill="rgb(45.098877%, 45.098877%, 45.098877%)" fill-opacity="1">
<use xlink:href="#glyph-0-0" x="87.004192" y="171.347458"/>
</g>
<g fill="rgb(45.098877%, 45.098877%, 45.098877%)" fill-opacity="1">
<use xlink:href="#glyph-1-0" x="109.992045" y="142.266787"/>
</g>
<g fill="rgb(100%, 84.709167%, 30.198669%)" fill-opacity="1">
<use xlink:href="#glyph-2-0" x="114.129028" y="196.001046"/>
</g>
<g fill="rgb(45.098877%, 45.098877%, 45.098877%)" fill-opacity="1">
<use xlink:href="#glyph-3-0" x="137.085985" y="167.001954"/>
</g>
<g fill="rgb(13.729858%, 12.159729%, 12.159729%)" fill-opacity="1">
<use xlink:href="#glyph-4-0" x="147.302764" y="162.646278"/>
</g>
<g fill="rgb(13.729858%, 12.159729%, 12.159729%)" fill-opacity="1">
<use xlink:href="#glyph-4-1" x="167.099939" y="162.646278"/>
</g>
<g fill="rgb(13.729858%, 12.159729%, 12.159729%)" fill-opacity="1">
<use xlink:href="#glyph-4-2" x="184.347519" y="162.646278"/>
</g>
<g fill="rgb(13.729858%, 12.159729%, 12.159729%)" fill-opacity="1">
<use xlink:href="#glyph-4-3" x="203.669766" y="162.646278"/>
</g>
<g fill="rgb(13.729858%, 12.159729%, 12.159729%)" fill-opacity="1">
<use xlink:href="#glyph-4-4" x="223.666901" y="162.646278"/>
</g>
<g fill="rgb(13.729858%, 12.159729%, 12.159729%)" fill-opacity="1">
<use xlink:href="#glyph-4-0" x="243.189119" y="162.646278"/>
</g>
<g fill="rgb(13.729858%, 12.159729%, 12.159729%)" fill-opacity="1">
<use xlink:href="#glyph-4-5" x="262.986298" y="162.646278"/>
</g>
<g fill="rgb(13.729858%, 12.159729%, 12.159729%)" fill-opacity="1">
<use xlink:href="#glyph-4-1" x="280.083907" y="162.646278"/>
</g>
<g fill="rgb(13.729858%, 12.159729%, 12.159729%)" fill-opacity="1">
<use xlink:href="#glyph-4-2" x="297.331491" y="162.646278"/>
</g>
<g fill="rgb(32.939148%, 32.939148%, 32.939148%)" fill-opacity="1">
<use xlink:href="#glyph-5-0" x="171.822253" y="187.706076"/>
</g>
<g fill="rgb(32.939148%, 32.939148%, 32.939148%)" fill-opacity="1">
<use xlink:href="#glyph-5-1" x="195.910369" y="187.706076"/>
</g>
<g fill="rgb(32.939148%, 32.939148%, 32.939148%)" fill-opacity="1">
<use xlink:href="#glyph-6-0" x="219.998484" y="187.706076"/>
</g>
<g fill="rgb(32.939148%, 32.939148%, 32.939148%)" fill-opacity="1">
<use xlink:href="#glyph-7-0" x="244.086596" y="187.706076"/>
</g>
</svg>
